<svg height="1822" width="720" xmlns="http://www.w3.org/2000/svg">
<rect height="1822" fill="#555" width="720"></rect>
<text fill="#7f7" font-family="Courier New" font-size="12" xml:space="preserve">
<tspan x="10" y="26">└─┬ sprity@1.0.8 </tspan>
<tspan x="10" y="42">  ├── bluebird@2.11.0 </tspan>
<tspan x="10" y="58">  ├─┬ color@0.8.0 </tspan>
<tspan x="10" y="74">  │ ├── color-convert@0.5.3 </tspan>
<tspan x="10" y="90">  │ └─┬ color-string@0.3.0 </tspan>
<tspan x="10" y="106">  │   └── color-name@1.1.2 </tspan>
<tspan x="10" y="122">  ├── colors@1.1.2 </tspan>
<tspan x="10" y="138">  ├── cssesc@0.1.0 </tspan>
<tspan x="10" y="154">  ├─┬ fs-extra@0.18.4 </tspan>
<tspan x="10" y="170">  │ ├─┬ graceful-fs@3.0.11 </tspan>
<tspan x="10" y="186">  │ │ └── natives@1.1.0 </tspan>
<tspan x="10" y="202">  │ ├─┬ jsonfile@2.4.0 </tspan>
<tspan x="10" y="218">  │ │ └── graceful-fs@4.1.11 </tspan>
<tspan x="10" y="234">  │ └─┬ rimraf@2.6.1 </tspan>
<tspan x="10" y="250">  │   └─┬ glob@7.1.1 </tspan>
<tspan x="10" y="266">  │     ├── fs.realpath@1.0.0 </tspan>
<tspan x="10" y="282">  │     ├─┬ inflight@1.0.6 </tspan>
<tspan x="10" y="298">  │     │ └── wrappy@1.0.2 </tspan>
<tspan x="10" y="314">  │     ├── minimatch@3.0.3 </tspan>
<tspan x="10" y="330">  │     ├── once@1.4.0 </tspan>
<tspan x="10" y="346">  │     └── path-is-absolute@1.0.1 </tspan>
<tspan x="10" y="362">  ├─┬ handlebars@3.0.3 </tspan>
<tspan x="10" y="378">  │ ├─┬ optimist@0.6.1 </tspan>
<tspan x="10" y="394">  │ │ ├── minimist@0.0.10 </tspan>
<tspan x="10" y="410">  │ │ └── wordwrap@0.0.3 </tspan>
<tspan x="10" y="426">  │ ├─┬ source-map@0.1.43 </tspan>
<tspan x="10" y="442">  │ │ └── amdefine@1.0.1 </tspan>
<tspan x="10" y="458">  │ └─┬ uglify-js@2.3.6 </tspan>
<tspan x="10" y="474">  │   ├── async@0.2.10 </tspan>
<tspan x="10" y="490">  │   └── optimist@0.3.7 </tspan>
<tspan x="10" y="506">  ├── imageinfo@1.0.4 </tspan>
<tspan x="10" y="522">  ├─┬ layout@2.2.0 </tspan>
<tspan x="10" y="538">  │ └── bin-pack@1.0.2 </tspan>
<tspan x="10" y="554">  ├── lodash@3.10.1 </tspan>
<tspan x="10" y="570">  ├─┬ nomnom@1.8.1 </tspan>
<tspan x="10" y="586">  │ ├─┬ chalk@0.4.0 </tspan>
<tspan x="10" y="602">  │ │ ├── ansi-styles@1.0.0 </tspan>
<tspan x="10" y="618">  │ │ ├── has-color@0.1.7 </tspan>
<tspan x="10" y="634">  │ │ └── strip-ansi@0.1.1 </tspan>
<tspan x="10" y="650">  │ └── underscore@1.6.0 </tspan>
<tspan x="10" y="666">  ├─┬ parse-filepath@0.5.0 </tspan>
<tspan x="10" y="682">  │ └─┬ path-ends-with@0.2.3 </tspan>
<tspan x="10" y="698">  │   ├── ends-with@0.2.0 </tspan>
<tspan x="10" y="714">  │   └─┬ normalize-path@2.1.1 </tspan>
<tspan x="10" y="730">  │     └── remove-trailing-separator@1.0.1 </tspan>
<tspan x="10" y="746">  ├── prettydiff@1.16.37 </tspan>
<tspan x="10" y="762">  ├── sprity-css@1.0.2 </tspan>
<tspan x="10" y="778">  ├─┬ sprity-lwip@1.0.7 </tspan>
<tspan x="10" y="794">  │ └─┬ lwip@0.0.9 </tspan>
<tspan x="10" y="810">  │   ├─┬ async@2.3.0 </tspan>
<tspan x="10" y="826">  │   │ └── lodash@4.17.4 </tspan>
<tspan x="10" y="842">  │   ├── bindings@1.2.1 </tspan>
<tspan x="10" y="858">  │   ├─┬ decree@0.0.6 </tspan>
<tspan x="10" y="874">  │   │ └── lodash-node@2.4.1 </tspan>
<tspan x="10" y="890">  │   └── nan@2.5.1 </tspan>
<tspan x="10" y="906">  ├─┬ ternary-stream@1.2.3 </tspan>
<tspan x="10" y="922">  │ ├─┬ duplexer2@0.0.2 </tspan>
<tspan x="10" y="938">  │ │ └── readable-stream@1.1.14 </tspan>
<tspan x="10" y="954">  │ ├── fork-stream@0.0.4 </tspan>
<tspan x="10" y="970">  │ └── merge-stream@0.1.8 </tspan>
<tspan x="10" y="986">  ├─┬ through2@0.6.5 </tspan>
<tspan x="10" y="1002">  │ ├─┬ readable-stream@1.0.34 </tspan>
<tspan x="10" y="1018">  │ │ ├── core-util-is@1.0.2 </tspan>
<tspan x="10" y="1034">  │ │ ├── inherits@2.0.3 </tspan>
<tspan x="10" y="1050">  │ │ ├── isarray@0.0.1 </tspan>
<tspan x="10" y="1066">  │ │ └── string_decoder@0.10.31 </tspan>
<tspan x="10" y="1082">  │ └── xtend@4.0.1 </tspan>
<tspan x="10" y="1098">  ├─┬ vinyl@0.4.6 </tspan>
<tspan x="10" y="1114">  │ ├── clone@0.2.0 </tspan>
<tspan x="10" y="1130">  │ └── clone-stats@0.0.1 </tspan>
<tspan x="10" y="1146">  └─┬ vinyl-fs@1.0.0 </tspan>
<tspan x="10" y="1162">    ├─┬ duplexify@3.5.0 </tspan>
<tspan x="10" y="1178">    │ ├─┬ end-of-stream@1.0.0 </tspan>
<tspan x="10" y="1194">    │ │ └── once@1.3.3 </tspan>
<tspan x="10" y="1210">    │ ├─┬ readable-stream@2.2.6 </tspan>
<tspan x="10" y="1226">    │ │ ├── buffer-shims@1.0.0 </tspan>
<tspan x="10" y="1242">    │ │ ├── isarray@1.0.0 </tspan>
<tspan x="10" y="1258">    │ │ ├── process-nextick-args@1.0.7 </tspan>
<tspan x="10" y="1274">    │ │ └── util-deprecate@1.0.2 </tspan>
<tspan x="10" y="1290">    │ └── stream-shift@1.0.0 </tspan>
<tspan x="10" y="1306">    ├─┬ glob-stream@4.1.1 </tspan>
<tspan x="10" y="1322">    │ ├── glob@4.5.3 </tspan>
<tspan x="10" y="1338">    │ ├─┬ glob2base@0.0.12 </tspan>
<tspan x="10" y="1354">    │ │ └── find-index@0.1.1 </tspan>
<tspan x="10" y="1370">    │ ├─┬ minimatch@2.0.10 </tspan>
<tspan x="10" y="1386">    │ │ └─┬ brace-expansion@1.1.6 </tspan>
<tspan x="10" y="1402">    │ │   ├── balanced-match@0.4.2 </tspan>
<tspan x="10" y="1418">    │ │   └── concat-map@0.0.1 </tspan>
<tspan x="10" y="1434">    │ ├── ordered-read-streams@0.1.0 </tspan>
<tspan x="10" y="1450">    │ └─┬ unique-stream@2.2.1 </tspan>
<tspan x="10" y="1466">    │   ├─┬ json-stable-stringify@1.0.1 </tspan>
<tspan x="10" y="1482">    │   │ └── jsonify@0.0.0 </tspan>
<tspan x="10" y="1498">    │   └─┬ through2-filter@2.0.0 </tspan>
<tspan x="10" y="1514">    │     └─┬ through2@2.0.3 </tspan>
<tspan x="10" y="1530">    │       └─┬ readable-stream@2.2.6 </tspan>
<tspan x="10" y="1546">    │         └── isarray@1.0.0 </tspan>
<tspan x="10" y="1562">    ├─┬ glob-watcher@0.0.8 </tspan>
<tspan x="10" y="1578">    │ └─┬ gaze@0.5.2 </tspan>
<tspan x="10" y="1594">    │   └─┬ globule@0.1.0 </tspan>
<tspan x="10" y="1610">    │     ├─┬ glob@3.1.21 </tspan>
<tspan x="10" y="1626">    │     │ ├── graceful-fs@1.2.3 </tspan>
<tspan x="10" y="1642">    │     │ └── inherits@1.0.2 </tspan>
<tspan x="10" y="1658">    │     ├── lodash@1.0.2 </tspan>
<tspan x="10" y="1674">    │     └─┬ minimatch@0.2.14 </tspan>
<tspan x="10" y="1690">    │       ├── lru-cache@2.7.3 </tspan>
<tspan x="10" y="1706">    │       └── sigmund@1.0.1 </tspan>
<tspan x="10" y="1722">    ├─┬ mkdirp@0.5.1 </tspan>
<tspan x="10" y="1738">    │ └── minimist@0.0.8 </tspan>
<tspan x="10" y="1754">    ├── object-assign@2.1.1 </tspan>
<tspan x="10" y="1770">    └─┬ strip-bom@1.0.0 </tspan>
<tspan x="10" y="1786">      ├── first-chunk-stream@1.0.0 </tspan>
<tspan x="10" y="1802">      └── is-utf8@0.2.1</tspan>
</text>
</svg>
